<?xml version="1.0" encoding="UTF-8" standalone="no"?>
<!-- Created with Inkscape (http://www.inkscape.org/) -->

<svg
   xmlns:dc="http://purl.org/dc/elements/1.1/"
   xmlns:cc="http://creativecommons.org/ns#"
   xmlns:rdf="http://www.w3.org/1999/02/22-rdf-syntax-ns#"
   xmlns:svg="http://www.w3.org/2000/svg"
   xmlns="http://www.w3.org/2000/svg"
   xmlns:sodipodi="http://sodipodi.sourceforge.net/DTD/sodipodi-0.dtd"
   xmlns:inkscape="http://www.inkscape.org/namespaces/inkscape"
   width="210mm"
   height="297mm"
   viewBox="0 0 210 297"
   version="1.1"
   id="svg8"
   sodipodi:docname="arbor-logo-attempt1.svg"
   inkscape:version="0.92.3 (2405546, 2018-03-11)">
  <defs
     id="defs2" />
  <sodipodi:namedview
     id="base"
     pagecolor="#ffffff"
     bordercolor="#666666"
     borderopacity="1.0"
     inkscape:pageopacity="0.0"
     inkscape:pageshadow="2"
     inkscape:zoom="2.8"
     inkscape:cx="306.40843"
     inkscape:cy="740.70054"
     inkscape:document-units="mm"
     inkscape:current-layer="layer1"
     showgrid="false"
     inkscape:window-width="1920"
     inkscape:window-height="1012"
     inkscape:window-x="0"
     inkscape:window-y="32"
     inkscape:window-maximized="1" />
  <metadata
     id="metadata5">
    <rdf:RDF>
      <cc:Work
         rdf:about="">
        <dc:format>image/svg+xml</dc:format>
        <dc:type
           rdf:resource="http://purl.org/dc/dcmitype/StillImage" />
      </cc:Work>
    </rdf:RDF>
  </metadata>
  <g
     inkscape:label="Layer 1"
     inkscape:groupmode="layer"
     id="layer1">
    <rect
       id="rect4359"
       width="7.2162771"
       height="61.941982"
       x="109.14492"
       y="80.650124"
       style="stroke-width:0.2740649;fill:#6c5353"
       transform="matrix(1,0,-0.36244627,0.93200467,0,0)"
       inkscape:export-xdpi="96"
       inkscape:export-ydpi="96" />
    <rect
       id="rect4359-3"
       width="7.2162771"
       height="61.941982"
       x="-57.898525"
       y="80.650124"
       style="stroke-width:0.2740649;fill:#6c5353"
       transform="matrix(-1,0,0.36244628,0.93200466,0,0)"
       inkscape:export-xdpi="96"
       inkscape:export-ydpi="96" />
    <rect
       style="fill:#2aff80;stroke-width:0.28431329"
       id="rect4427"
       width="6.614583"
       height="7.6378627"
       x="40.91843"
       y="118.82934"
       transform="matrix(1,0,0.5,0.8660254,0,0)"
       ry="2.7882397"
       rx="1.5119047"
       inkscape:export-xdpi="96"
       inkscape:export-ydpi="96" />
    <path
       style="fill:#37c871;stroke-width:0.20454909"
       d="m 57.462945,124.87842 c 3.461636,-0.01 11.51782,3.67812 10.383241,0 1.671025,2.95228 2.549236,5.77191 0,8.01809 -3.524309,-0.13224 -9.946718,-6.3256 -10.383241,0 -0.896738,-2.6727 -1.992928,-5.34539 0,-8.01809 z"
       id="rect4388"
       inkscape:connector-curvature="0"
       sodipodi:nodetypes="ccccc"
       inkscape:export-xdpi="96"
       inkscape:export-ydpi="96" />
    <path
       style="fill:#37c871;stroke-width:0.20454909"
       d="m 60.714614,116.09811 c 3.461636,-0.01 11.51782,3.67812 10.383241,0 1.671025,2.95228 2.549236,5.77191 0,8.01809 -3.524309,-0.13224 -9.946718,-6.3256 -10.383241,0 -0.896738,-2.6727 -1.992928,-5.34539 0,-8.01809 z"
       id="rect4388-6"
       inkscape:connector-curvature="0"
       sodipodi:nodetypes="ccccc"
       inkscape:transform-center-x="0.85044643"
       inkscape:transform-center-y="10.96131"
       inkscape:export-xdpi="96"
       inkscape:export-ydpi="96" />
    <path
       style="fill:#37c871;stroke-width:0.20454909"
       d="m 64.210895,107.02668 c 3.461636,-0.01 11.51782,3.67812 10.383241,0 1.671025,2.95228 2.549236,5.77191 0,8.01809 -3.524309,-0.13224 -9.946718,-6.3256 -10.383241,0 -0.896739,-2.6727 -1.992929,-5.34539 0,-8.01809 z"
       id="rect4388-7"
       inkscape:connector-curvature="0"
       sodipodi:nodetypes="ccccc"
       inkscape:transform-center-x="2.3623512"
       inkscape:transform-center-y="9.921875"
       inkscape:export-xdpi="96"
       inkscape:export-ydpi="96" />
    <path
       style="fill:#37c871;stroke-width:0.20454909"
       d="m 67.990657,97.388286 c 3.461636,-0.01 11.51782,3.678124 10.383241,0 1.671025,2.952284 2.549236,5.771914 0,8.018094 -3.524309,-0.13224 -9.946718,-6.325604 -10.383241,0 -0.896738,-2.6727 -1.992928,-5.34539 0,-8.018094 z"
       id="rect4388-5"
       inkscape:connector-curvature="0"
       sodipodi:nodetypes="ccccc"
       inkscape:transform-center-x="0.1889881"
       inkscape:transform-center-y="5.5751488"
       inkscape:export-xdpi="96"
       inkscape:export-ydpi="96" />
    <path
       style="fill:#37c871;stroke-width:0.20454909"
       d="m 71.959407,87.371918 c 3.461636,-0.01 11.51782,3.67812 10.383241,0 1.671025,2.95228 2.549236,5.77191 0,8.01809 -3.524309,-0.13224 -9.946718,-6.3256 -10.383241,0 -0.896739,-2.6727 -1.992929,-5.34539 0,-8.01809 z"
       id="rect4388-3"
       inkscape:connector-curvature="0"
       sodipodi:nodetypes="ccccc"
       inkscape:transform-center-x="4.2522321"
       inkscape:transform-center-y="7.2760417"
       inkscape:export-xdpi="96"
       inkscape:export-ydpi="96" />
    <path
       style="fill:#37c871;stroke-width:0.28735766"
       d="m 75.10623,109.33482 c 1.265907,5.29461 21.404838,-9.571344 28.86854,-5.19717 l 2.898,2.92931 c -7.284516,-8.127596 -23.871806,5.4014 -32.278634,7.97781 z"
       id="rect4424"
       inkscape:connector-curvature="0"
       sodipodi:nodetypes="ccccc"
       inkscape:export-xdpi="96"
       inkscape:export-ydpi="96" />
  </g>
</svg>
